<?xml version="1.0" standalone="no"?>
<!DOCTYPE svg PUBLIC "-//W3C//DTD SVG 20010904//EN"
 "http://www.w3.org/TR/2001/REC-SVG-20010904/DTD/svg10.dtd">
<svg version="1.0" xmlns="http://www.w3.org/2000/svg"
 width="578.000000pt" height="618.000000pt" viewBox="0 0 578.000000 618.000000"
 preserveAspectRatio="xMidYMid meet">

<g transform="translate(0.000000,618.000000) scale(0.100000,-0.100000)"
fill="#000000" stroke="none">
<path d="M4615 6134 c-186 -18 -280 -43 -505 -136 -342 -142 -577 -198 -1005
-239 -70 -7 -467 -15 -950 -19 -527 -5 -847 -11 -876 -18 -267 -62 -427 -130
-605 -258 -363 -260 -584 -649 -624 -1094 -13 -156 -14 -2754 0 -2924 57 -697
585 -1260 1277 -1361 95 -14 285 -15 1608 -12 1498 3 1500 3 1592 24 134 32
235 68 348 123 426 208 712 577 818 1054 l22 101 0 1950 0 1950 -27 96 c-90
328 -325 581 -653 704 -110 42 -308 69 -420 59z m186 -650 c134 -38 229 -144
258 -286 31 -147 -53 -311 -196 -384 -53 -26 -67 -29 -158 -29 -89 0 -106 3
-157 28 -73 36 -150 119 -179 195 -106 273 151 557 432 476z m-1586 -922 c609
-136 1079 -553 1269 -1123 63 -191 81 -307 81 -534 0 -227 -18 -344 -81 -533
-168 -500 -567 -901 -1064 -1066 -204 -68 -288 -80 -540 -80 -195 0 -238 3
-327 22 -245 53 -491 163 -673 300 -864 652 -921 1898 -119 2618 234 210 514
345 839 404 144 27 479 22 615 -8z"/>
<path d="M2780 4094 c-14 -2 -59 -9 -100 -15 -156 -23 -337 -97 -484 -199 -92
-64 -246 -221 -309 -317 -82 -124 -148 -285 -178 -438 -9 -43 -14 -131 -13
-230 0 -139 4 -174 26 -265 61 -241 162 -415 340 -586 103 -99 180 -152 312
-215 620 -296 1366 -1 1617 641 63 159 82 276 76 470 -4 136 -9 182 -30 263
-55 209 -159 389 -312 543 -167 168 -376 280 -609 329 -76 15 -288 28 -336 19z"/>
</g>
</svg>
